<svg width="98" height="98" viewBox="0 0 98 98" fill="none" xmlns="http://www.w3.org/2000/svg">
<path fill-rule="evenodd" clip-rule="evenodd" d="M49.0019 0.0830078C76.0179 0.0830078 97.9179 21.984 97.9179 49.001C97.9179 76.017 76.0179 97.917 49.0019 97.917C21.9859 97.917 0.0859375 76.017 0.0859375 49.001C0.0859375 21.984 21.9859 0.0830078 49.0019 0.0830078ZM49.0019 14.035C45.6389 14.035 42.8869 16.786 42.8869 20.149V54.827C42.8869 58.19 45.6389 60.941 49.0019 60.941C52.3649 60.941 55.1169 58.19 55.1169 54.827V20.149C55.1169 16.786 52.3649 14.035 49.0019 14.035ZM49.0019 71.737C45.6249 71.737 42.8869 74.473 42.8869 77.851C42.8869 81.227 45.6249 83.965 49.0019 83.965C52.3789 83.965 55.1169 81.227 55.1169 77.851C55.1169 74.474 52.3789 71.737 49.0019 71.737Z" fill="#FFB800"/>
</svg>
