<svg width="30" height="30" viewBox="0 0 30 30" fill="none" xmlns="http://www.w3.org/2000/svg">
<path d="M15 0C12.0333 0 9.13319 0.879735 6.66645 2.52796C4.19972 4.17618 2.27713 6.51886 1.14181 9.25975C0.00649941 12.0006 -0.290551 15.0166 0.288228 17.9264C0.867006 20.8361 2.29562 23.5088 4.3934 25.6066C6.49119 27.7044 9.16394 29.133 12.0737 29.7118C14.9834 30.2906 17.9994 29.9935 20.7403 28.8582C23.4812 27.7229 25.8238 25.8003 27.4721 23.3336C29.1203 20.8668 30 17.9667 30 15C29.9952 11.0232 28.4133 7.21074 25.6013 4.39874C22.7893 1.58674 18.9768 0.00483751 15 0ZM22.71 10.74L12.72 20.72C12.5771 20.8721 12.3866 20.9709 12.18 21C12.1174 21.0121 12.0538 21.0188 11.99 21.02C11.9359 21.0232 11.8817 21.0164 11.83 21C11.6234 20.9708 11.4329 20.8721 11.29 20.72L7.29001 16.73C7.19729 16.6375 7.12373 16.5276 7.07354 16.4066C7.02336 16.2857 6.99752 16.156 6.99752 16.025C6.99752 15.894 7.02336 15.7643 7.07354 15.6434C7.12373 15.5224 7.19729 15.4125 7.29001 15.32C7.47881 15.1326 7.73402 15.0275 8.00001 15.0275C8.26599 15.0275 8.5212 15.1326 8.71001 15.32L12.01 18.62L21.29 9.33C21.4788 9.14267 21.734 9.03755 22 9.03755C22.266 9.03755 22.5212 9.14267 22.71 9.33C22.8027 9.42251 22.8763 9.5324 22.9264 9.65338C22.9766 9.77435 23.0025 9.90403 23.0025 10.035C23.0025 10.166 22.9766 10.2957 22.9264 10.4166C22.8763 10.5376 22.8027 10.6475 22.71 10.74Z" fill="#16AE13"/>
</svg>
