<svg width="84" height="84" viewBox="0 0 84 84" fill="none" xmlns="http://www.w3.org/2000/svg">
<path d="M42.0007 0.428711C19.0407 0.428711 0.429688 19.0417 0.429688 41.9997C0.429688 64.9597 19.0407 83.5707 42.0007 83.5707C64.9587 83.5707 83.5717 64.9597 83.5717 41.9997C83.5717 19.0417 64.9587 0.428711 42.0007 0.428711ZM60.6237 55.2897C61.9827 56.6467 61.9827 58.8487 60.6237 60.2077L60.2077 60.6257C58.8487 61.9827 56.6467 61.9827 55.2877 60.6257L42.0007 47.3347L28.7107 60.6247C27.3537 61.9817 25.1517 61.9817 23.7927 60.6247L23.3747 60.2067C22.0177 58.8477 22.0177 56.6457 23.3747 55.2887L36.6657 41.9997L23.3757 28.7117C22.0187 27.3527 22.0187 25.1507 23.3757 23.7917L23.7937 23.3757C25.1527 22.0167 27.3547 22.0167 28.7117 23.3757L42.0007 36.6647L55.2887 23.3767C56.6477 22.0177 58.8497 22.0177 60.2087 23.3767L60.6247 23.7927C61.9837 25.1517 61.9837 27.3537 60.6247 28.7127L47.3357 41.9997L60.6237 55.2897Z" fill="#E22222"/>
</svg>
